<mxfile host="app.diagrams.net" modified="2023-11-13T19:01:36.099Z" agent="Mozilla/5.0 (Windows NT 10.0; Win64; x64) AppleWebKit/537.36 (KHTML, like Gecko) Chrome/116.0.5845.837 YaBrowser/23.9.4.837 Yowser/2.5 Safari/537.36" etag="05smWS7hIhucX0DA__sE" version="22.1.0" type="github">
  <diagram name="Page-1" id="e7e014a7-5840-1c2e-5031-d8a46d1fe8dd">
    <mxGraphModel dx="1431" dy="810" grid="1" gridSize="10" guides="1" tooltips="1" connect="1" arrows="1" fold="1" page="1" pageScale="1" pageWidth="1169" pageHeight="826" background="none" math="0" shadow="0">
      <root>
        <mxCell id="0" />
        <mxCell id="1" parent="0" />
        <mxCell id="EOhL5GB9QivhrYyDv3b4-41" value="" style="whiteSpace=wrap;html=1;aspect=fixed;" vertex="1" parent="1">
          <mxGeometry x="250" y="260" width="410" height="410" as="geometry" />
        </mxCell>
        <mxCell id="EOhL5GB9QivhrYyDv3b4-43" value="&lt;font style=&quot;font-size: 24px;&quot;&gt;&lt;b&gt;Диаграмма прецедентов&lt;br&gt;(Филармония)&lt;br&gt;&lt;/b&gt;&lt;/font&gt;" style="text;html=1;strokeColor=none;fillColor=none;align=center;verticalAlign=middle;whiteSpace=wrap;rounded=0;" vertex="1" parent="1">
          <mxGeometry x="380" y="160" width="60" height="30" as="geometry" />
        </mxCell>
        <mxCell id="EOhL5GB9QivhrYyDv3b4-44" value="ЗРИТЕЛЬ" style="shape=umlActor;verticalLabelPosition=bottom;verticalAlign=top;html=1;" vertex="1" parent="1">
          <mxGeometry x="90" y="320" width="70" height="110" as="geometry" />
        </mxCell>
        <mxCell id="EOhL5GB9QivhrYyDv3b4-45" value="СИСТЕМНЫЙ АДМИНИСТРАТОР" style="shape=umlActor;verticalLabelPosition=bottom;verticalAlign=top;html=1;" vertex="1" parent="1">
          <mxGeometry x="740" y="280" width="60" height="110" as="geometry" />
        </mxCell>
        <mxCell id="EOhL5GB9QivhrYyDv3b4-46" value="АКТЕР" style="shape=umlActor;verticalLabelPosition=bottom;verticalAlign=top;html=1;" vertex="1" parent="1">
          <mxGeometry x="390" y="720" width="60" height="100" as="geometry" />
        </mxCell>
        <mxCell id="EOhL5GB9QivhrYyDv3b4-47" value="Просмотр информации о концертах" style="ellipse;whiteSpace=wrap;html=1;" vertex="1" parent="1">
          <mxGeometry x="270" y="540" width="140" height="70" as="geometry" />
        </mxCell>
        <mxCell id="EOhL5GB9QivhrYyDv3b4-48" value="Покупка билетов" style="ellipse;whiteSpace=wrap;html=1;" vertex="1" parent="1">
          <mxGeometry x="280" y="370" width="140" height="70" as="geometry" />
        </mxCell>
        <mxCell id="EOhL5GB9QivhrYyDv3b4-49" value="Просмотр информации об актерах" style="ellipse;whiteSpace=wrap;html=1;" vertex="1" parent="1">
          <mxGeometry x="280" y="450" width="140" height="70" as="geometry" />
        </mxCell>
        <mxCell id="EOhL5GB9QivhrYyDv3b4-50" value="Запись на участие в концерте" style="ellipse;whiteSpace=wrap;html=1;" vertex="1" parent="1">
          <mxGeometry x="480" y="560" width="140" height="70" as="geometry" />
        </mxCell>
        <mxCell id="EOhL5GB9QivhrYyDv3b4-52" value="" style="line;strokeWidth=1;fillColor=none;align=left;verticalAlign=middle;spacingTop=-1;spacingLeft=3;spacingRight=3;rotatable=0;labelPosition=right;points=[];portConstraint=eastwest;strokeColor=inherit;" vertex="1" parent="1">
          <mxGeometry x="180" y="401" width="100" height="8" as="geometry" />
        </mxCell>
        <mxCell id="EOhL5GB9QivhrYyDv3b4-55" value="" style="endArrow=none;html=1;rounded=0;entryX=0;entryY=0.5;entryDx=0;entryDy=0;" edge="1" parent="1" target="EOhL5GB9QivhrYyDv3b4-49">
          <mxGeometry width="50" height="50" relative="1" as="geometry">
            <mxPoint x="170" y="410" as="sourcePoint" />
            <mxPoint x="150" y="590" as="targetPoint" />
            <Array as="points" />
          </mxGeometry>
        </mxCell>
        <mxCell id="EOhL5GB9QivhrYyDv3b4-56" value="" style="endArrow=none;html=1;rounded=0;exitX=0;exitY=0.5;exitDx=0;exitDy=0;" edge="1" parent="1" source="EOhL5GB9QivhrYyDv3b4-47">
          <mxGeometry width="50" height="50" relative="1" as="geometry">
            <mxPoint x="130" y="540" as="sourcePoint" />
            <mxPoint x="170" y="430" as="targetPoint" />
          </mxGeometry>
        </mxCell>
        <mxCell id="EOhL5GB9QivhrYyDv3b4-57" value="" style="endArrow=none;html=1;rounded=0;entryX=0;entryY=1;entryDx=0;entryDy=0;" edge="1" parent="1" target="EOhL5GB9QivhrYyDv3b4-50">
          <mxGeometry width="50" height="50" relative="1" as="geometry">
            <mxPoint x="420" y="710" as="sourcePoint" />
            <mxPoint x="480" y="680" as="targetPoint" />
          </mxGeometry>
        </mxCell>
        <mxCell id="EOhL5GB9QivhrYyDv3b4-58" value="" style="endArrow=none;html=1;rounded=0;" edge="1" parent="1">
          <mxGeometry width="50" height="50" relative="1" as="geometry">
            <mxPoint x="400" y="710" as="sourcePoint" />
            <mxPoint x="350" y="610" as="targetPoint" />
          </mxGeometry>
        </mxCell>
        <mxCell id="EOhL5GB9QivhrYyDv3b4-61" value="Обновление учетных записей" style="ellipse;whiteSpace=wrap;html=1;" vertex="1" parent="1">
          <mxGeometry x="470" y="290" width="140" height="70" as="geometry" />
        </mxCell>
        <mxCell id="EOhL5GB9QivhrYyDv3b4-62" value="Контроль ученных записей и базы данных" style="ellipse;whiteSpace=wrap;html=1;" vertex="1" parent="1">
          <mxGeometry x="470" y="401" width="140" height="70" as="geometry" />
        </mxCell>
        <mxCell id="EOhL5GB9QivhrYyDv3b4-63" value="" style="endArrow=none;html=1;rounded=0;exitX=1;exitY=0.5;exitDx=0;exitDy=0;" edge="1" parent="1" source="EOhL5GB9QivhrYyDv3b4-61">
          <mxGeometry width="50" height="50" relative="1" as="geometry">
            <mxPoint x="600" y="340" as="sourcePoint" />
            <mxPoint x="710" y="340" as="targetPoint" />
          </mxGeometry>
        </mxCell>
        <mxCell id="EOhL5GB9QivhrYyDv3b4-64" value="" style="endArrow=none;html=1;rounded=0;exitX=1;exitY=0.5;exitDx=0;exitDy=0;" edge="1" parent="1" source="EOhL5GB9QivhrYyDv3b4-62">
          <mxGeometry width="50" height="50" relative="1" as="geometry">
            <mxPoint x="670" y="400" as="sourcePoint" />
            <mxPoint x="720" y="350" as="targetPoint" />
          </mxGeometry>
        </mxCell>
      </root>
    </mxGraphModel>
  </diagram>
</mxfile>
